<?xml version="1.0" encoding="utf-8"?>
<!--Generator: Adobe Illustrator 22.0.1, SVG Export Plug-In . SVG Version: 6.00 Build 0)-->
<svg version="1.1" id="Layer_1" xmlns="http://www.w3.org/2000/svg" xmlns:xlink="http://www.w3.org/1999/xlink" x="0px" y="0px" width="460px" height="270px" viewBox="40 0 500 270" style="enable-background:new 0 0 800.3 246.3" xml:space="preserve">
    <text font-size="150" x="50" y="220" font-family="Work Sans, sans-serif" font-weight="600">
        Jungle
    </text>
    <g transform="translate(-190, -140) rotate(179 40 200) scale(-1 1)">
        <path d="M408.5,245.9c-4-0.1-8-0.1-12,0c-5.5-0.3-11-0.5-16.5-0.9c-14.6-1.1-29.1-3.3-43.3-6.6
			c-49.1-11.4-92.2-34.3-129.8-67.6c-3.5-3.1-6.8-6.3-10.2-9.5c-0.8-0.7-1.5-1.7-1.9-2.7c-0.6-1.4-0.3-2.9,0.7-4
			c1-1.1,2.6-1.5,4-0.9c0.9,0.4,1.8,0.8,2.6,1.3c35.9,22.2,75.1,38.4,116.2,48c13.8,3.2,27.7,5.7,41.7,7.5
			c20.1,2.5,40.4,3.4,60.6,2.7c10.9-0.3,21.7-1.3,32.5-2.7c25.2-3.2,50.1-8.9,74.2-16.9c12.7-4.2,25.1-9,37.2-14.6
			c1.8-1,4-1.3,6-0.8c3.3,0.8,5.3,4.2,4.5,7.5c-0.1,0.4-0.3,0.9-0.5,1.3c-0.8,1.5-1.9,2.8-3.3,3.8c-11.5,9-23.9,16.9-37,23.5
			c-24.7,12.5-51.1,21.4-78.3,26.5C440.2,243.6,424.4,245.3,408.5,245.9z"/>
        <path d="M580.4,148.4c6.6,0.2,13.1,0.6,19.5,2.3c1.8,0.5,3.5,1.1,5.2,1.9c2.3,0.9,3.8,3.1,4.1,5.5
			c0.4,2.8,0.5,5.7,0.3,8.6c-1.3,17.1-6.6,33.6-15.4,48.3c-3.2,5.3-7.1,10.1-11.6,14.3c-0.9,0.9-2,1.6-3.2,2
			c-1.9,0.5-3.1-0.5-3.2-2.4c0.1-1,0.3-2,0.7-3c3.5-9.4,6.9-18.7,9.6-28.4c1.6-5.3,2.7-10.7,3.4-16.2c0.2-2,0.3-4,0.1-6
			c-0.1-3.4-2.3-6.3-5.6-7.3c-3.1-1-6.3-1.6-9.6-1.8c-9.2-0.4-18.4,0-27.5,1.2l-12.1,1.5c-1.3,0.1-2.5,0-3.2-1.2s-0.4-2.4,0.3-3.6
			c0.8-1.1,1.8-2.1,3-2.8c7.4-5.3,15.7-8.5,24.5-10.6C566.5,149.3,573.4,148.6,580.4,148.4z"/>
    </g>
</svg>
